<!-- Generated by IcoMoon.io -->
<svg version="1.1" xmlns="http://www.w3.org/2000/svg" width="512" height="512" viewBox="0 0 512 512">
<title></title>
<g id="icomoon-ignore">
</g>
<path d="M514.46 89.843h-147.692v-36.923c0-20.308-16.615-36.923-36.923-36.923h-147.691c-20.31 0-36.923 16.615-36.923 36.923v36.923h-147.691c-20.308 0-36.923 16.615-36.923 36.923v332.305c0 20.309 16.613 36.923 36.923 36.923h516.92c20.308 0 36.923-16.614 36.923-36.923v-332.305c0-20.308-16.615-36.923-36.923-36.923zM182.154 52.987c0.020-0.023 0.043-0.047 0.066-0.067h147.56c0.024 0.020 0.047 0.044 0.068 0.067v36.856h-147.694v-36.856zM514.46 237.535h-73.846v55.384c0 10.155-8.308 18.461-18.461 18.461h-36.923c-10.156 0-18.461-8.306-18.461-18.461v-55.384h-221.537v55.384c0 10.155-8.308 18.461-18.461 18.461h-36.923c-10.155 0-18.461-8.306-18.461-18.461v-55.384h-73.846v-36.923h516.92v36.923z"></path>
</svg>
